<svg xmlns="http://www.w3.org/2000/svg" version="1.1" xmlns:xlink="http://www.w3.org/1999/xlink" xmlns:svgjs="http://svgjs.dev/svgjs" width="1000" height="623" viewBox="0 0 1000 623"><g transform="matrix(1,0,0,1,-0.6060606060606233,0.2522267206477409)"><svg viewBox="0 0 396 247" data-background-color="#ffffff" preserveAspectRatio="xMidYMid meet" height="623" width="1000" xmlns="http://www.w3.org/2000/svg" xmlns:xlink="http://www.w3.org/1999/xlink"><defs></defs><g id="tight-bounds" transform="matrix(1,0,0,1,0.2400000000000091,-0.09999999999999432)"><svg viewBox="0 0 395.52 247.2" height="247.2" width="395.52"><g><svg></svg></g><g><svg viewBox="0 0 395.52 247.2" height="247.2" width="395.52"><g><path d="M157.015 33.756l0 14.076-37.507 0v-47.832h65.466c12.047 0 22.958 1.182 32.732 3.546 9.774 2.409 18.071 6.16 24.891 11.252 6.819 5.137 12.116 11.729 15.889 19.776 1.84 3.993 3.225 8.413 4.157 13.258l-41.114 0c-1.485-2.11-3.26-3.96-5.323-5.552-7.41-5.683-17.253-8.524-29.527-8.524zM157.015 213.444h34.778c6.592 0 12.798-0.796 18.617-2.386 5.774-1.591 10.82-3.932 15.139-7.024 1.955-1.378 3.723-2.934 5.305-4.666h42.823c-1.104 4.076-2.599 7.859-4.485 11.349-4.546 8.41-10.57 15.343-18.071 20.799-7.501 5.455-16.139 9.433-25.913 11.933-9.774 2.5-19.89 3.751-30.346 3.751h-75.354l0-47.832h37.507z" fill="#0cd448" data-fill-palette-color="tertiary"></path></g><g transform="matrix(1,0,0,1,0,72.1326984126984)"><svg viewBox="0 0 395.52 102.93460317460317" height="102.93460317460317" width="395.52"><g><svg viewBox="0 0 395.52 102.93460317460317" height="102.93460317460317" width="395.52"><g><svg viewBox="0 0 395.52 102.93460317460317" height="102.93460317460317" width="395.52"><g><svg viewBox="0 0 395.52 102.93460317460317" height="102.93460317460317" width="395.52"><g><svg viewBox="0 0 395.52 102.93460317460317" height="102.93460317460317" width="395.52"><g><svg viewBox="0 0 395.52 102.93460317460317" height="102.93460317460317" width="395.52"><g transform="matrix(1,0,0,1,0,0)"><svg width="395.52" viewBox="3 -38.849998474121094 151.19000244140625 39.349998474121094" height="102.93460317460317" data-palette-color="#0cd448"><path d="M25.35-10.4L25.35-10.4Q25.35-8.05 24.55-6.05 23.75-4.05 22.3-2.6 20.85-1.15 18.82-0.33 16.8 0.5 14.4 0.5L14.4 0.5Q13.15 0.5 12.03 0.23 10.9-0.05 9.95-0.53 9-1 8.3-1.58 7.6-2.15 7.25-2.75L7.25-2.75Q7.25-2.5 7.28-2.23 7.3-1.95 7.3-1.7L7.3-1.7 7.3 0 3 0 3-38.85 7.3-38.85 7.3-17.85Q7.7-18.45 8.38-19.07 9.05-19.7 9.98-20.23 10.9-20.75 12.05-21.1 13.2-21.45 14.6-21.45L14.6-21.45Q17-21.45 18.98-20.68 20.95-19.9 22.38-18.48 23.8-17.05 24.58-15 25.35-12.95 25.35-10.4ZM20.7-10.5L20.7-10.5Q20.7-11.95 20.25-13.18 19.8-14.4 18.95-15.3 18.1-16.2 16.9-16.73 15.7-17.25 14.2-17.25L14.2-17.25Q12.7-17.25 11.43-16.73 10.15-16.2 9.25-15.3 8.35-14.4 7.83-13.18 7.3-11.95 7.3-10.5L7.3-10.5Q7.3-9.05 7.83-7.8 8.35-6.55 9.25-5.65 10.15-4.75 11.43-4.23 12.7-3.7 14.2-3.7L14.2-3.7Q15.7-3.7 16.9-4.23 18.1-4.75 18.95-5.68 19.8-6.6 20.25-7.83 20.7-9.05 20.7-10.5ZM28.55-10.5L28.55-10.5Q28.55-12.75 29.42-14.75 30.3-16.75 31.8-18.23 33.3-19.7 35.32-20.58 37.35-21.45 39.7-21.45L39.7-21.45Q42.05-21.45 44.07-20.58 46.1-19.7 47.57-18.23 49.05-16.75 49.87-14.75 50.7-12.75 50.7-10.5L50.7-10.5Q50.7-8.25 49.87-6.25 49.05-4.25 47.57-2.75 46.1-1.25 44.07-0.38 42.05 0.5 39.65 0.5L39.65 0.5Q37.35 0.5 35.32-0.3 33.3-1.1 31.8-2.55 30.3-4 29.42-6.03 28.55-8.05 28.55-10.5ZM32.8-10.45L32.8-10.45Q32.8-9.05 33.32-7.83 33.85-6.6 34.77-5.68 35.7-4.75 36.92-4.23 38.15-3.7 39.55-3.7L39.55-3.7Q40.95-3.7 42.2-4.23 43.45-4.75 44.37-5.68 45.3-6.6 45.85-7.83 46.4-9.05 46.4-10.45L46.4-10.45Q46.4-11.85 45.85-13.1 45.3-14.35 44.37-15.28 43.45-16.2 42.2-16.73 40.95-17.25 39.55-17.25L39.55-17.25Q38.15-17.25 36.92-16.73 35.7-16.2 34.77-15.28 33.85-14.35 33.32-13.1 32.8-11.85 32.8-10.45ZM55.25 0L55.25-38.85 59.5-38.85 59.5-15.85Q60.6-18.35 62.6-19.88 64.59-21.4 67.75-21.45L67.75-21.45Q70.95-21.5 72.87-19.75 74.8-18 74.9-15.2L74.9-15.2 74.9 0 70.59 0 70.59-13.25Q70.5-14.85 69.5-15.98 68.5-17.1 66.34-17.2L66.34-17.2Q64.84-17.2 63.6-16.68 62.35-16.15 61.45-15.25 60.55-14.35 60.02-13.1 59.5-11.85 59.5-10.35L59.5-10.35 59.5 0 55.25 0ZM79.29-10.45L79.29-10.45Q79.29-12.9 80.12-14.93 80.94-16.95 82.39-18.4 83.84-19.85 85.82-20.65 87.79-21.45 90.09-21.45L90.09-21.45Q91.64-21.45 92.87-21.08 94.09-20.7 94.97-20.18 95.84-19.65 96.44-19 97.04-18.35 97.34-17.85L97.34-17.85 97.34-38.85 101.64-38.85 101.64 0 97.34 0 97.34-1.55Q97.34-1.85 97.39-2.23 97.44-2.6 97.44-2.85L97.44-2.85Q96.94-2.25 96.27-1.68 95.59-1.1 94.69-0.6 93.79-0.1 92.62 0.2 91.44 0.5 89.94 0.5L89.94 0.5Q87.44 0.5 85.47-0.38 83.49-1.25 82.12-2.73 80.74-4.2 80.02-6.2 79.29-8.2 79.29-10.45ZM83.59-10.5L83.59-10.5Q83.59-9.05 84.12-7.8 84.64-6.55 85.54-5.65 86.44-4.75 87.69-4.23 88.94-3.7 90.44-3.7L90.44-3.7Q91.94-3.7 93.22-4.23 94.49-4.75 95.42-5.68 96.34-6.6 96.84-7.83 97.34-9.05 97.34-10.5L97.34-10.5Q97.34-11.95 96.84-13.18 96.34-14.4 95.42-15.3 94.49-16.2 93.22-16.73 91.94-17.25 90.44-17.25L90.44-17.25Q88.94-17.25 87.69-16.73 86.44-16.2 85.54-15.3 84.64-14.4 84.12-13.18 83.59-11.95 83.59-10.5ZM106.19-10.25L106.19-10.25Q106.19-12.55 107.07-14.58 107.94-16.6 109.44-18.13 110.94-19.65 112.92-20.55 114.89-21.45 117.14-21.45L117.14-21.45Q118.64-21.45 119.89-21.08 121.14-20.7 122.04-20.15 122.94-19.6 123.49-19 124.04-18.4 124.24-17.95L124.24-17.95 124.44-20.9 128.54-20.9 128.54 0 124.24 0 124.24-2.65Q123.99-2.25 123.44-1.7 122.89-1.15 122.02-0.68 121.14-0.2 119.94 0.15 118.74 0.5 117.19 0.5L117.19 0.5Q114.79 0.5 112.77-0.38 110.74-1.25 109.29-2.73 107.84-4.2 107.02-6.15 106.19-8.1 106.19-10.25ZM110.49-10.5L110.49-10.5Q110.49-9.05 111.02-7.8 111.54-6.55 112.44-5.65 113.34-4.75 114.59-4.23 115.84-3.7 117.34-3.7L117.34-3.7Q118.84-3.7 120.12-4.23 121.39-4.75 122.32-5.68 123.24-6.6 123.74-7.83 124.24-9.05 124.24-10.5L124.24-10.5Q124.24-11.95 123.74-13.18 123.24-14.4 122.32-15.3 121.39-16.2 120.12-16.73 118.84-17.25 117.34-17.25L117.34-17.25Q115.84-17.25 114.59-16.73 113.34-16.2 112.44-15.3 111.54-14.4 111.02-13.18 110.49-11.95 110.49-10.5ZM134.54 0L134.54-20.9 138.29-20.9Q138.39-19.35 138.46-18.07 138.54-16.8 138.64-15.55L138.64-15.55Q139.79-18.25 141.91-19.85 144.04-21.45 147.14-21.45L147.14-21.45Q150.29-21.45 152.19-19.7 154.09-17.95 154.19-15.2L154.19-15.2 154.19 0 149.89 0 149.89-13.25Q149.79-14.85 148.79-15.98 147.79-17.1 145.64-17.2L145.64-17.2Q144.14-17.2 142.89-16.68 141.64-16.15 140.74-15.25 139.84-14.35 139.31-13.1 138.79-11.85 138.79-10.35L138.79-10.35 138.79 0 134.54 0Z" opacity="1" transform="matrix(1,0,0,1,0,0)" fill="#0cd448" class="undefined-text-0" data-fill-palette-color="primary" id="text-0"></path></svg></g></svg></g></svg></g></svg></g><g></g></svg></g></svg></g></svg></g></svg></g></svg><rect width="395.52" height="247.2" fill="none" stroke="none" visibility="hidden"></rect></g></svg></g></svg>